<svg width="1006" height="78" viewBox="0 0 1006 78" fill="none" xmlns="http://www.w3.org/2000/svg">
<g filter="url(#filter0_d_8_356)">
<rect x="5.99994" y="2" width="993.827" height="66" rx="16" fill="white" shape-rendering="crispEdges"/>
<path d="M65.4593 35.7306C64.8454 34.5113 64.1519 33.2821 63.3793 32.0828C61.5042 34.0329 59.7415 35.7558 58.1021 37.2867L61.2324 40.6171C62.495 39.0866 63.8965 37.4551 65.4593 35.7306Z" fill="#8F8D8D"/>
<path fill-rule="evenodd" clip-rule="evenodd" d="M76.8052 12L64.5131 25.0777C63.1474 26.5308 64.5131 30.8901 64.5131 30.8901C64.2498 31.1703 63.9885 31.4461 63.7293 31.7176C64.5014 32.9097 65.1956 34.131 65.8117 35.3431C66.2753 34.8353 66.7528 34.3196 67.2447 33.7962C67.2447 33.7962 71.3421 35.2493 72.7079 33.7962L84.9999 20.7185L83.4634 19.0838L75.2687 27.8023L73.4761 25.8951L81.6708 17.1766L80.1343 15.5419L71.9396 24.2604L70.147 22.3532L78.3417 13.6347L76.8052 12ZM60.9138 41.0047L57.7378 37.6256C54.5407 40.589 51.8266 42.816 49.6803 44.577C47.7923 46.1261 46.3436 47.3147 45.3921 48.327C44.0264 49.7801 42.6606 51.2332 42.6606 54.1394C42.6606 55.5924 42.6606 56.319 43.002 56.6823C43.3435 57.0455 44.0264 57.0455 45.3921 57.0455C48.1237 57.0455 49.4895 55.5925 50.8553 54.1394C51.8068 53.1271 52.924 51.5858 54.3801 49.5771C56.0353 47.2936 58.1284 44.4061 60.9138 41.0047ZM63.3793 32.0828C61.5042 34.0329 59.7415 35.7558 58.1021 37.2867L42.0899 20.251C42.0899 20.251 40.7241 18.798 42.0899 17.3449C45.897 17.363 55.7477 23.1572 59.8451 27.5164C61.1647 28.9204 62.3432 30.4747 63.3793 32.0828Z" fill="#8F8D8D"/>
<path fill-rule="evenodd" clip-rule="evenodd" d="M60.9138 41.0047C61.019 40.8762 61.1252 40.747 61.2324 40.6171L60.9138 41.0047ZM61.2324 40.6171C62.495 39.0866 63.8965 37.4551 65.4593 35.7306L61.2324 40.6171ZM65.4593 35.7306C65.5759 35.6019 65.6933 35.4728 65.8117 35.3431L65.4593 35.7306Z" fill="#8F8D8D"/>
<path d="M72.6493 54.5801C74.0151 56.0332 75.3809 57.4863 78.1125 57.4863C79.4355 57.4863 80.1178 57.4862 80.4696 57.156C80.4736 57.1522 80.4777 57.1482 80.4817 57.1443C80.4859 57.1402 80.49 57.1361 80.4941 57.1319L80.4987 57.1271L80.5026 57.123C80.844 56.7597 80.844 56.0332 80.844 54.5801C80.844 51.6739 79.4782 50.2208 78.1125 48.7678L72.6493 54.5801Z" fill="#8F8D8D"/>
<path d="M68.9366 49.8132C70.4844 51.9233 71.6653 53.5332 72.6493 54.5801L78.1125 48.7678C77.1552 47.7493 75.6947 46.5508 73.7877 44.986L68.9272 49.8003L68.9366 49.8132Z" fill="#8F8D8D"/>
<path fill-rule="evenodd" clip-rule="evenodd" d="M65.8136 35.3468L65.8117 35.3431L65.4593 35.7306L65.8136 35.3468Z" fill="#8F8D8D"/>
<path d="M73.7877 44.986C71.9365 43.467 69.6646 41.6027 67.024 39.2228L65.3082 44.9534C66.538 46.5539 67.6049 47.999 68.5426 49.2761L68.6228 49.3854C68.7254 49.5252 68.8264 49.6629 68.9259 49.7986L68.9272 49.8003L73.7877 44.986Z" fill="#8F8D8D"/>
<path d="M67.024 39.2228C66.578 38.0927 66.0563 36.9163 65.4593 35.7306L61.2324 40.6171L65.3082 44.9534L67.024 39.2228Z" fill="#8F8D8D"/>
<path d="M94.9568 27.46H89.6968V41.5H94.9568C99.4368 41.5 102.317 38.64 102.317 34.48C102.317 30.3 99.4368 27.46 94.9568 27.46ZM93.1168 38.54V30.38H94.7368C97.3168 30.38 98.8368 31.9 98.8368 34.48C98.8368 37.06 97.3168 38.54 94.7368 38.54H93.1168ZM104.228 41.5H107.648V30.34H104.228V41.5ZM105.948 29.18C107.148 29.18 107.968 28.36 107.968 27.34C107.968 26.3 107.148 25.48 105.948 25.48C104.728 25.48 103.908 26.3 103.908 27.34C103.908 28.36 104.728 29.18 105.948 29.18ZM117.826 41.5H121.226V34.98C121.226 31.98 119.506 30.22 116.926 30.22C115.426 30.22 114.226 30.88 113.546 31.82V30.34H110.126V41.5H113.546V35.44C113.546 33.92 114.386 33.08 115.686 33.08C116.986 33.08 117.826 33.92 117.826 35.44V41.5ZM123.603 41.5H127.023V30.34H123.603V41.5ZM125.323 29.18C126.523 29.18 127.343 28.36 127.343 27.34C127.343 26.3 126.523 25.48 125.323 25.48C124.103 25.48 123.283 26.3 123.283 27.34C123.283 28.36 124.103 29.18 125.323 29.18ZM137.201 41.5H140.601V34.98C140.601 31.98 138.881 30.22 136.301 30.22C134.801 30.22 133.601 30.88 132.921 31.82V30.34H129.501V41.5H132.921V35.44C132.921 33.92 133.761 33.08 135.061 33.08C136.361 33.08 137.201 33.92 137.201 35.44V41.5ZM142.298 35.9C142.298 39.42 144.478 41.66 147.218 41.66C148.858 41.66 150.038 40.88 150.658 39.9V41.48C150.658 43.36 149.638 44.04 148.338 44.04C147.158 44.04 146.318 43.5 146.098 42.66H142.718C143.018 45.32 145.178 47 148.498 47C152.358 47 154.078 44.46 154.078 41.48V30.34H150.658V31.92C150.058 30.92 148.858 30.18 147.218 30.18C144.478 30.18 142.298 32.38 142.298 35.9ZM150.658 35.92C150.658 37.7 149.518 38.68 148.218 38.68C146.938 38.68 145.778 37.68 145.778 35.9C145.778 34.12 146.938 33.16 148.218 33.16C149.518 33.16 150.658 34.14 150.658 35.92Z" fill="black"/>
<line x1="220.185" y1="13.7284" x2="220.185" y2="56.2716" stroke="#919191" stroke-width="3.45682" stroke-linecap="round"/>
<path d="M305.281 45.5743C309.077 45.5743 312.154 42.5305 312.154 38.7759C312.154 35.0213 309.077 31.9775 305.281 31.9775C301.485 31.9775 298.408 35.0213 298.408 38.7759C298.408 42.5305 301.485 45.5743 305.281 45.5743Z" fill="#8F8D8D"/>
<path d="M321.342 21.9695H315.888L312.545 15.3556C312.403 15.0733 312.183 14.8358 311.912 14.6699C311.64 14.5039 311.327 14.416 311.008 14.416H299.553C299.234 14.416 298.921 14.5039 298.65 14.6699C298.378 14.8358 298.159 15.0733 298.016 15.3556L294.673 21.9695H289.221C287.455 21.9714 285.763 22.6659 284.515 23.9007C283.266 25.1355 282.564 26.8096 282.562 28.5558V48.9971C282.564 50.7431 283.267 52.4171 284.515 53.6517C285.763 54.8862 287.456 55.5806 289.221 55.5824H321.342C323.107 55.5804 324.799 54.8859 326.047 53.6514C327.295 52.4168 327.997 50.743 327.999 48.997V28.5558C327.997 26.8098 327.295 25.1357 326.047 23.9009C324.799 22.6662 323.107 21.9716 321.342 21.9695ZM305.281 48.9731C303.242 48.9731 301.249 48.375 299.553 47.2545C297.858 46.1341 296.537 44.5415 295.756 42.6782C294.976 40.815 294.772 38.7647 295.17 36.7866C295.567 34.8086 296.549 32.9916 297.991 31.5655C299.433 30.1395 301.27 29.1683 303.27 28.7748C305.269 28.3814 307.342 28.5833 309.226 29.3551C311.11 30.1269 312.72 31.4339 313.852 33.1108C314.985 34.7877 315.59 36.7592 315.59 38.776C315.587 41.4795 314.5 44.0714 312.567 45.983C310.634 47.8947 308.014 48.97 305.281 48.9731ZM320.554 31.0334H316.736C316.28 31.0334 315.843 30.8544 315.521 30.5357C315.199 30.217 315.018 29.7848 315.018 29.3341C315.018 28.8834 315.199 28.4511 315.521 28.1324C315.843 27.8137 316.28 27.6347 316.736 27.6347H320.554C321.009 27.6347 321.446 27.8137 321.769 28.1324C322.091 28.4511 322.272 28.8834 322.272 29.3341C322.272 29.7848 322.091 30.217 321.769 30.5357C321.446 30.8544 321.009 31.0334 320.554 31.0334Z" fill="#8F8D8D"/>
<path d="M343.734 42H347.354L342.274 27.96H338.314L333.234 42H336.814L337.654 39.52H342.894L343.734 42ZM342.014 36.88H338.554L340.274 31.74L342.014 36.88ZM349.44 38.12C349.44 41.02 351.06 42 353.38 42H355.12V39.1H353.9C353.14 39.1 352.86 38.82 352.86 38.16V33.68H355.1V30.84H352.86V28.12H349.44V30.84H348.08V33.68H349.44V38.12ZM357.565 38.12C357.565 41.02 359.185 42 361.505 42H363.245V39.1H362.025C361.265 39.1 360.985 38.82 360.985 38.16V33.68H363.225V30.84H360.985V28.12H357.565V30.84H356.205V33.68H357.565V38.12ZM368.57 36.82C368.57 34.9 369.51 34.34 371.13 34.34H372.07V30.72C370.57 30.72 369.35 31.52 368.57 32.7V30.84H365.15V42H368.57V36.82ZM373.024 36.4C373.024 39.92 375.204 42.16 377.924 42.16C379.584 42.16 380.764 41.4 381.384 40.42V42H384.804V30.84H381.384V32.42C380.784 31.44 379.604 30.68 377.944 30.68C375.204 30.68 373.024 32.88 373.024 36.4ZM381.384 36.42C381.384 38.2 380.244 39.18 378.944 39.18C377.664 39.18 376.504 38.18 376.504 36.4C376.504 34.62 377.664 33.66 378.944 33.66C380.244 33.66 381.384 34.64 381.384 36.42ZM386.599 36.42C386.599 39.96 388.919 42.16 392.199 42.16C394.999 42.16 396.979 40.54 397.559 37.96H393.919C393.619 38.78 393.079 39.24 392.139 39.24C390.919 39.24 390.079 38.28 390.079 36.42C390.079 34.56 390.919 33.6 392.139 33.6C393.079 33.6 393.639 34.1 393.919 34.88H397.559C396.979 32.22 394.999 30.68 392.199 30.68C388.919 30.68 386.599 32.9 386.599 36.42ZM399.928 38.12C399.928 41.02 401.548 42 403.868 42H405.608V39.1H404.388C403.628 39.1 403.348 38.82 403.348 38.16V33.68H405.588V30.84H403.348V28.12H399.928V30.84H398.568V33.68H399.928V38.12ZM407.513 42H410.933V30.84H407.513V42ZM409.233 29.68C410.433 29.68 411.253 28.86 411.253 27.84C411.253 26.8 410.433 25.98 409.233 25.98C408.013 25.98 407.193 26.8 407.193 27.84C407.193 28.86 408.013 29.68 409.233 29.68ZM424.331 36.42C424.331 32.88 421.811 30.68 418.531 30.68C415.271 30.68 412.731 32.88 412.731 36.42C412.731 39.96 415.211 42.16 418.491 42.16C421.771 42.16 424.331 39.96 424.331 36.42ZM416.211 36.42C416.211 34.52 417.291 33.64 418.531 33.64C419.731 33.64 420.851 34.52 420.851 36.42C420.851 38.3 419.711 39.2 418.491 39.2C417.251 39.2 416.211 38.3 416.211 36.42ZM433.846 42H437.246V35.48C437.246 32.48 435.526 30.72 432.946 30.72C431.446 30.72 430.246 31.38 429.566 32.32V30.84H426.146V42H429.566V35.94C429.566 34.42 430.406 33.58 431.706 33.58C433.006 33.58 433.846 34.42 433.846 35.94V42ZM448.682 38.76C448.622 34.6 442.582 35.86 442.582 34.08C442.582 33.54 443.022 33.22 443.822 33.22C444.782 33.22 445.362 33.72 445.462 34.48H448.622C448.402 32.28 446.802 30.68 443.922 30.68C441.002 30.68 439.382 32.24 439.382 34.14C439.382 38.24 445.462 36.94 445.462 38.74C445.462 39.24 445.002 39.64 444.122 39.64C443.182 39.64 442.482 39.12 442.402 38.34H439.022C439.182 40.5 441.182 42.16 444.162 42.16C446.962 42.16 448.682 40.7 448.682 38.76Z" fill="black"/>
<line x1="514.642" y1="13.7284" x2="514.642" y2="56.2716" stroke="#919191" stroke-width="3.45682" stroke-linecap="round"/>
<g opacity="0.5">
<path d="M590.137 31.9847C591.123 31.9847 591.924 31.1844 591.924 30.1983V23.2317C591.924 20.1172 594.458 17.5824 597.572 17.5824C600.687 17.5824 603.221 20.1172 603.221 23.2317V30.1983C603.221 31.1844 604.021 31.9847 605.008 31.9847C605.994 31.9847 606.794 31.1844 606.794 30.1983V23.2317C606.795 18.1469 602.658 14.0098 597.572 14.0098C592.488 14.0098 588.351 18.1469 588.351 23.2317V30.1983C588.351 31.1844 589.151 31.9847 590.137 31.9847Z" fill="#919191"/>
<path d="M618.063 27.9707H608.581V30.1982C608.581 32.1686 606.979 33.7709 605.009 33.7709C603.038 33.7709 601.436 32.1686 601.436 30.1982V27.9707H593.711V30.1982C593.711 32.1686 592.109 33.7709 590.138 33.7709C588.168 33.7709 586.566 32.1686 586.566 30.1982V27.9707H576.978C576.485 27.9707 576.18 28.3592 576.297 28.838L582.547 54.2904C582.924 55.7213 584.43 56.8815 585.909 56.8815H609.131C610.612 56.8815 612.116 55.7213 612.495 54.2904L618.744 28.838C618.861 28.3583 618.557 27.9707 618.063 27.9707Z" fill="#919191"/>
<path d="M634.81 37.82C634.81 33.12 627.87 34.22 627.87 31.78C627.87 30.9 628.49 30.48 629.31 30.5C630.23 30.52 630.87 31.06 630.93 31.96H634.63C634.49 29.28 632.43 27.76 629.37 27.76C626.43 27.76 624.25 29.24 624.25 31.9C624.21 36.88 631.23 35.48 631.23 38.08C631.23 38.9 630.59 39.4 629.59 39.4C628.63 39.4 627.95 38.88 627.85 37.8H624.21C624.31 40.64 626.67 42.14 629.69 42.14C632.97 42.14 634.81 40.18 634.81 37.82ZM636.915 42H640.335V35.94C640.335 34.42 641.175 33.58 642.475 33.58C643.775 33.58 644.615 34.42 644.615 35.94V42H648.015V35.48C648.015 32.48 646.315 30.72 643.775 30.72C642.235 30.72 641.015 31.38 640.335 32.34V27.2H636.915V42ZM661.312 36.42C661.312 32.88 658.792 30.68 655.512 30.68C652.252 30.68 649.712 32.88 649.712 36.42C649.712 39.96 652.192 42.16 655.472 42.16C658.752 42.16 661.312 39.96 661.312 36.42ZM653.192 36.42C653.192 34.52 654.272 33.64 655.512 33.64C656.712 33.64 657.832 34.52 657.832 36.42C657.832 38.3 656.692 39.2 655.472 39.2C654.232 39.2 653.192 38.3 653.192 36.42ZM666.546 32.42V30.84H663.126V47.32H666.546V40.44C667.166 41.38 668.346 42.16 669.986 42.16C672.726 42.16 674.906 39.92 674.906 36.4C674.906 32.88 672.726 30.68 669.986 30.68C668.346 30.68 667.166 31.44 666.546 32.42ZM671.426 36.4C671.426 38.18 670.266 39.18 668.966 39.18C667.686 39.18 666.526 38.2 666.526 36.42C666.526 34.64 667.686 33.66 668.966 33.66C670.266 33.66 671.426 34.62 671.426 36.4ZM680.12 32.42V30.84H676.7V47.32H680.12V40.44C680.74 41.38 681.92 42.16 683.56 42.16C686.3 42.16 688.48 39.92 688.48 36.4C688.48 32.88 686.3 30.68 683.56 30.68C681.92 30.68 680.74 31.44 680.12 32.42ZM685 36.4C685 38.18 683.84 39.18 682.54 39.18C681.26 39.18 680.1 38.2 680.1 36.42C680.1 34.64 681.26 33.66 682.54 33.66C683.84 33.66 685 34.62 685 36.4ZM690.274 42H693.694V30.84H690.274V42ZM691.994 29.68C693.194 29.68 694.014 28.86 694.014 27.84C694.014 26.8 693.194 25.98 691.994 25.98C690.774 25.98 689.954 26.8 689.954 27.84C689.954 28.86 690.774 29.68 691.994 29.68ZM703.873 42H707.273V35.48C707.273 32.48 705.553 30.72 702.973 30.72C701.473 30.72 700.273 31.38 699.593 32.32V30.84H696.173V42H699.593V35.94C699.593 34.42 700.433 33.58 701.733 33.58C703.033 33.58 703.873 34.42 703.873 35.94V42ZM708.969 36.4C708.969 39.92 711.149 42.16 713.889 42.16C715.529 42.16 716.709 41.38 717.329 40.4V41.98C717.329 43.86 716.309 44.54 715.009 44.54C713.829 44.54 712.989 44 712.769 43.16H709.389C709.689 45.82 711.849 47.5 715.169 47.5C719.029 47.5 720.749 44.96 720.749 41.98V30.84H717.329V32.42C716.729 31.42 715.529 30.68 713.889 30.68C711.149 30.68 708.969 32.88 708.969 36.4ZM717.329 36.42C717.329 38.2 716.189 39.18 714.889 39.18C713.609 39.18 712.449 38.18 712.449 36.4C712.449 34.62 713.609 33.66 714.889 33.66C716.189 33.66 717.329 34.64 717.329 36.42Z" fill="black"/>
</g>
<line opacity="0.5" x1="787.099" y1="13.7284" x2="787.099" y2="56.2716" stroke="#919191" stroke-width="3.45682" stroke-linecap="round"/>
<g opacity="0.5">
<path d="M890.656 36.3777C890.362 35.9641 889.922 35.6885 889.335 35.6885C886.105 35.6885 883.022 37.0668 881.113 39.5479L879.792 41.2019C878.177 42.9937 875.682 43.9586 873.186 43.9586H868.782C867.901 43.9586 867.314 43.4072 867.314 42.5802C867.314 41.7532 867.901 41.2019 868.782 41.2019H871.571C873.92 41.2019 876.122 39.41 876.122 37.2047V37.0668C876.122 36.3777 875.388 35.6885 874.654 35.6885H865.699C860.414 35.6885 856.156 37.8938 853.807 41.4776L849.844 47.2666C849.55 47.6801 849.55 48.2315 849.844 48.645L854.248 55.5367C854.395 55.8124 854.835 56.0881 855.129 56.2259C855.275 56.2259 855.275 56.2259 855.422 56.2259C855.716 56.2259 856.009 56.0881 856.303 55.9502C861.882 52.5044 868.341 50.7125 874.948 50.7125C879.792 50.7125 884.196 48.2315 886.545 44.2343L890.509 37.6182C890.803 37.3425 890.803 36.7912 890.656 36.3777Z" fill="#919191"/>
<path d="M865.701 32.9327H874.656C877.005 32.9327 879.06 34.7245 879.06 36.9299V37.2055L888.162 28.3841C891.686 24.9382 891.686 19.5627 888.162 16.1168C886.4 14.6006 884.198 13.6357 881.849 13.6357C879.501 13.6357 877.152 14.6006 875.39 16.2546L874.656 16.9438L873.922 16.2546C872.16 14.6006 869.958 13.6357 867.462 13.6357C865.113 13.6357 862.911 14.6006 861.15 16.2546C857.626 19.7005 857.626 25.0761 861.15 28.5219L865.701 32.9327ZM867.316 24.6626H869.664L872.16 22.3194C872.454 22.0437 872.894 21.9058 873.481 21.9058C873.922 22.0437 874.362 22.3194 874.509 22.595L875.977 25.3517L877.739 21.3545C877.886 20.941 878.326 20.5275 878.913 20.5275C879.501 20.5275 879.941 20.6653 880.235 21.0788L883.171 25.2139C883.611 25.9031 883.464 26.7301 882.73 27.1436C881.996 27.5571 881.115 27.4193 880.675 26.7301L879.354 24.8004L877.445 29.2111C877.298 29.7625 876.711 30.176 876.124 30.176C875.537 30.176 875.096 29.9003 874.803 29.3489L872.747 25.4896L871.279 26.8679C870.986 27.2814 870.692 27.4193 870.252 27.4193H867.316C866.435 27.4193 865.847 26.8679 865.847 26.0409C865.847 25.2139 866.435 24.6626 867.316 24.6626Z" fill="#919191"/>
<path d="M906.294 42H909.714V27.96H906.294V33.46H900.974V27.96H897.554V42H900.974V36.22H906.294V42ZM917.102 33.42C918.242 33.42 919.202 34.12 919.202 35.34H914.922C915.122 34.1 915.982 33.42 917.102 33.42ZM922.442 38.3H918.802C918.522 38.9 917.982 39.38 917.022 39.38C915.922 39.38 915.022 38.7 914.902 37.24H922.642C922.682 36.9 922.702 36.56 922.702 36.24C922.702 32.84 920.402 30.68 917.142 30.68C913.822 30.68 911.502 32.88 911.502 36.42C911.502 39.96 913.862 42.16 917.142 42.16C919.922 42.16 921.902 40.48 922.442 38.3ZM923.827 36.4C923.827 39.92 926.007 42.16 928.727 42.16C930.387 42.16 931.567 41.4 932.187 40.42V42H935.607V30.84H932.187V32.42C931.587 31.44 930.407 30.68 928.747 30.68C926.007 30.68 923.827 32.88 923.827 36.4ZM932.187 36.42C932.187 38.2 931.047 39.18 929.747 39.18C928.467 39.18 927.307 38.18 927.307 36.4C927.307 34.62 928.467 33.66 929.747 33.66C931.047 33.66 932.187 34.64 932.187 36.42ZM938.081 42H941.501V27.2H938.081V42ZM944.519 38.12C944.519 41.02 946.139 42 948.459 42H950.199V39.1H948.979C948.219 39.1 947.939 38.82 947.939 38.16V33.68H950.179V30.84H947.939V28.12H944.519V30.84H943.159V33.68H944.519V38.12ZM952.104 42H955.524V35.94C955.524 34.42 956.364 33.58 957.664 33.58C958.964 33.58 959.804 34.42 959.804 35.94V42H963.204V35.48C963.204 32.48 961.504 30.72 958.964 30.72C957.424 30.72 956.204 31.38 955.524 32.34V27.2H952.104V42Z" fill="black"/>
</g>
<rect x="5.13573" y="1.13579" width="995.556" height="67.7284" rx="16.8642" stroke="black" stroke-opacity="0.1" stroke-width="1.72841" shape-rendering="crispEdges"/>
</g>
<defs>
<filter id="filter0_d_8_356" x="0.271515" y="0.271606" width="1005.28" height="77.4568" filterUnits="userSpaceOnUse" color-interpolation-filters="sRGB">
<feFlood flood-opacity="0" result="BackgroundImageFix"/>
<feColorMatrix in="SourceAlpha" type="matrix" values="0 0 0 0 0 0 0 0 0 0 0 0 0 0 0 0 0 0 127 0" result="hardAlpha"/>
<feOffset dy="4"/>
<feGaussianBlur stdDeviation="2"/>
<feComposite in2="hardAlpha" operator="out"/>
<feColorMatrix type="matrix" values="0 0 0 0 0 0 0 0 0 0 0 0 0 0 0 0 0 0 0.1 0"/>
<feBlend mode="normal" in2="BackgroundImageFix" result="effect1_dropShadow_8_356"/>
<feBlend mode="normal" in="SourceGraphic" in2="effect1_dropShadow_8_356" result="shape"/>
</filter>
</defs>
</svg>
